<svg xmlns="http://www.w3.org/2000/svg" viewBox="0 0 1920 1080" role="img" aria-label="SMC slide 03 Midground generated visual layer">
<defs><linearGradient id="g" x1="0" y1="0" x2="1" y2="1"><stop stop-color="#9d3f22"/><stop offset=".56" stop-color="#173d2a"/><stop offset="1" stop-color="#2daeb3"/></linearGradient><filter id="noise"><feTurbulence baseFrequency=".9" numOctaves="3" seed="3"/><feColorMatrix type="saturate" values="0"/><feComponentTransfer><feFuncA type="table" tableValues="0 .18"/></feComponentTransfer></filter></defs><rect width="1920" height="1080" fill="transparent"/><path d="M-100 1080 C20 529.8784005641907, 110 449.87840056419066, 260 1080 Z" fill="#173d2a" opacity="0.78"/><path d="M160 1080 C280 467.023825328445, 370 387.023825328445, 520 1080 Z" fill="#9d3f22" opacity="0.78"/><path d="M420 1080 C540 452.8753007735803, 630 372.8753007735803, 780 1080 Z" fill="#173d2a" opacity="0.78"/><path d="M680 1080 C800 500.4409151260752, 890 420.4409151260752, 1040 1080 Z" fill="#9d3f22" opacity="0.78"/><path d="M940 1080 C1060 565.9890619103153, 1150 485.9890619103153, 1300 1080 Z" fill="#173d2a" opacity="0.78"/><path d="M1200 1080 C1320 589.2550772636367, 1410 509.25507726363674, 1560 1080 Z" fill="#9d3f22" opacity="0.78"/><path d="M1460 1080 C1580 548.8482939669229, 1670 468.84829396692294, 1820 1080 Z" fill="#173d2a" opacity="0.78"/><path d="M1720 1080 C1840 481.9185222377441, 1930 401.9185222377441, 2080 1080 Z" fill="#9d3f22" opacity="0.78"/><path d="M1980 1080 C2100 450.00068554145076, 2190 370.00068554145076, 2340 1080 Z" fill="#173d2a" opacity="0.78"/><path d="M120 610 C520 530, 880 700, 1780 570" fill="none" stroke="#2daeb3" stroke-width="8" opacity=".42"/><path d="M120 662 C520 582, 880 752, 1780 622" fill="none" stroke="#2daeb3" stroke-width="10" opacity=".42"/><path d="M120 714 C520 634, 880 804, 1780 674" fill="none" stroke="#2daeb3" stroke-width="12" opacity=".42"/><path d="M120 766 C520 686, 880 856, 1780 726" fill="none" stroke="#2daeb3" stroke-width="14" opacity=".42"/><path d="M120 818 C520 738, 880 908, 1780 778" fill="none" stroke="#2daeb3" stroke-width="16" opacity=".42"/><path d="M120 870 C520 790, 880 960, 1780 830" fill="none" stroke="#2daeb3" stroke-width="18" opacity=".42"/><rect width="1920" height="1080" filter="url(#noise)" opacity=".42"/></svg>