<svg xmlns="http://www.w3.org/2000/svg" viewBox="0 0 1920 1080" role="img" aria-label="SMC slide 03 Foreground generated visual layer">
<defs><linearGradient id="g" x1="0" y1="0" x2="1" y2="1"><stop stop-color="#9d3f22"/><stop offset=".56" stop-color="#173d2a"/><stop offset="1" stop-color="#2daeb3"/></linearGradient><filter id="noise"><feTurbulence baseFrequency=".9" numOctaves="3" seed="3"/><feColorMatrix type="saturate" values="0"/><feComponentTransfer><feFuncA type="table" tableValues="0 .18"/></feComponentTransfer></filter></defs><rect width="1920" height="1080" fill="transparent"/><path d="M123 1080 C98 1032.0, 143 1000, 131 982" stroke="#d9b66f" stroke-width="8" fill="none" opacity=".62"/><path d="M196 1080 C171 1015.2, 216 972, 208 954" stroke="#d9b66f" stroke-width="12" fill="none" opacity=".62"/><path d="M269 1080 C244 998.4, 289 944, 285 926" stroke="#d9b66f" stroke-width="16" fill="none" opacity=".62"/><path d="M342 1080 C317 981.6, 362 916, 362 898" stroke="#d9b66f" stroke-width="20" fill="none" opacity=".62"/><path d="M415 1080 C390 964.8, 435 888, 439 870" stroke="#d9b66f" stroke-width="24" fill="none" opacity=".62"/><path d="M488 1080 C463 948.0, 508 860, 496 842" stroke="#d9b66f" stroke-width="8" fill="none" opacity=".62"/><path d="M561 1080 C536 931.2, 581 832, 573 814" stroke="#d9b66f" stroke-width="12" fill="none" opacity=".62"/><path d="M634 1080 C609 1032.0, 654 1000, 650 982" stroke="#d9b66f" stroke-width="16" fill="none" opacity=".62"/><path d="M707 1080 C682 1015.2, 727 972, 727 954" stroke="#d9b66f" stroke-width="20" fill="none" opacity=".62"/><path d="M780 1080 C755 998.4, 800 944, 804 926" stroke="#d9b66f" stroke-width="24" fill="none" opacity=".62"/><path d="M853 1080 C828 981.6, 873 916, 861 898" stroke="#d9b66f" stroke-width="8" fill="none" opacity=".62"/><path d="M926 1080 C901 964.8, 946 888, 938 870" stroke="#d9b66f" stroke-width="12" fill="none" opacity=".62"/><path d="M999 1080 C974 948.0, 1019 860, 1015 842" stroke="#d9b66f" stroke-width="16" fill="none" opacity=".62"/><path d="M1072 1080 C1047 931.2, 1092 832, 1092 814" stroke="#d9b66f" stroke-width="20" fill="none" opacity=".62"/><path d="M1145 1080 C1120 1032.0, 1165 1000, 1169 982" stroke="#d9b66f" stroke-width="24" fill="none" opacity=".62"/><path d="M1218 1080 C1193 1015.2, 1238 972, 1226 954" stroke="#d9b66f" stroke-width="8" fill="none" opacity=".62"/><path d="M1291 1080 C1266 998.4, 1311 944, 1303 926" stroke="#d9b66f" stroke-width="12" fill="none" opacity=".62"/><path d="M1364 1080 C1339 981.6, 1384 916, 1380 898" stroke="#d9b66f" stroke-width="16" fill="none" opacity=".62"/><path d="M1437 1080 C1412 964.8, 1457 888, 1457 870" stroke="#d9b66f" stroke-width="20" fill="none" opacity=".62"/><path d="M1510 1080 C1485 948.0, 1530 860, 1534 842" stroke="#d9b66f" stroke-width="24" fill="none" opacity=".62"/><path d="M1583 1080 C1558 931.2, 1603 832, 1591 814" stroke="#d9b66f" stroke-width="8" fill="none" opacity=".62"/><path d="M1656 1080 C1631 1032.0, 1676 1000, 1668 982" stroke="#d9b66f" stroke-width="12" fill="none" opacity=".62"/><path d="M1729 1080 C1704 1015.2, 1749 972, 1745 954" stroke="#d9b66f" stroke-width="16" fill="none" opacity=".62"/><path d="M1802 1080 C1777 998.4, 1822 944, 1822 926" stroke="#d9b66f" stroke-width="20" fill="none" opacity=".62"/><path d="M1875 1080 C1850 981.6, 1895 916, 1899 898" stroke="#d9b66f" stroke-width="24" fill="none" opacity=".62"/><path d="M28 1080 C3 964.8, 48 888, 36 870" stroke="#d9b66f" stroke-width="8" fill="none" opacity=".62"/><path d="M101 1080 C76 948.0, 121 860, 113 842" stroke="#d9b66f" stroke-width="12" fill="none" opacity=".62"/><path d="M174 1080 C149 931.2, 194 832, 190 814" stroke="#d9b66f" stroke-width="16" fill="none" opacity=".62"/><path d="M247 1080 C222 1032.0, 267 1000, 267 982" stroke="#d9b66f" stroke-width="20" fill="none" opacity=".62"/><path d="M320 1080 C295 1015.2, 340 972, 344 954" stroke="#d9b66f" stroke-width="24" fill="none" opacity=".62"/><path d="M0 930 C320 870, 560 1010, 900 930 S1540 980, 1920 910 L1920 1080 L0 1080 Z" fill="#111312" opacity=".72"/><rect width="1920" height="1080" filter="url(#noise)" opacity=".42"/></svg>