<svg xmlns="http://www.w3.org/2000/svg" viewBox="0 0 1920 1080" role="img" aria-label="SMC slide 21 Foreground generated visual layer">
<defs><linearGradient id="g" x1="0" y1="0" x2="1" y2="1"><stop stop-color="#9d3f22"/><stop offset=".56" stop-color="#173d2a"/><stop offset="1" stop-color="#2daeb3"/></linearGradient><filter id="noise"><feTurbulence baseFrequency=".9" numOctaves="3" seed="21"/><feColorMatrix type="saturate" values="0"/><feComponentTransfer><feFuncA type="table" tableValues="0 .18"/></feComponentTransfer></filter></defs><rect width="1920" height="1080" fill="transparent"/><path d="M861 1080 C836 1032.0, 881 1000, 869 982" stroke="#d9b66f" stroke-width="8" fill="none" opacity=".62"/><path d="M934 1080 C909 1015.2, 954 972, 946 954" stroke="#d9b66f" stroke-width="12" fill="none" opacity=".62"/><path d="M1007 1080 C982 998.4, 1027 944, 1023 926" stroke="#d9b66f" stroke-width="16" fill="none" opacity=".62"/><path d="M1080 1080 C1055 981.6, 1100 916, 1100 898" stroke="#d9b66f" stroke-width="20" fill="none" opacity=".62"/><path d="M1153 1080 C1128 964.8, 1173 888, 1177 870" stroke="#d9b66f" stroke-width="24" fill="none" opacity=".62"/><path d="M1226 1080 C1201 948.0, 1246 860, 1234 842" stroke="#d9b66f" stroke-width="8" fill="none" opacity=".62"/><path d="M1299 1080 C1274 931.2, 1319 832, 1311 814" stroke="#d9b66f" stroke-width="12" fill="none" opacity=".62"/><path d="M1372 1080 C1347 1032.0, 1392 1000, 1388 982" stroke="#d9b66f" stroke-width="16" fill="none" opacity=".62"/><path d="M1445 1080 C1420 1015.2, 1465 972, 1465 954" stroke="#d9b66f" stroke-width="20" fill="none" opacity=".62"/><path d="M1518 1080 C1493 998.4, 1538 944, 1542 926" stroke="#d9b66f" stroke-width="24" fill="none" opacity=".62"/><path d="M1591 1080 C1566 981.6, 1611 916, 1599 898" stroke="#d9b66f" stroke-width="8" fill="none" opacity=".62"/><path d="M1664 1080 C1639 964.8, 1684 888, 1676 870" stroke="#d9b66f" stroke-width="12" fill="none" opacity=".62"/><path d="M1737 1080 C1712 948.0, 1757 860, 1753 842" stroke="#d9b66f" stroke-width="16" fill="none" opacity=".62"/><path d="M1810 1080 C1785 931.2, 1830 832, 1830 814" stroke="#d9b66f" stroke-width="20" fill="none" opacity=".62"/><path d="M1883 1080 C1858 1032.0, 1903 1000, 1907 982" stroke="#d9b66f" stroke-width="24" fill="none" opacity=".62"/><path d="M36 1080 C11 1015.2, 56 972, 44 954" stroke="#d9b66f" stroke-width="8" fill="none" opacity=".62"/><path d="M109 1080 C84 998.4, 129 944, 121 926" stroke="#d9b66f" stroke-width="12" fill="none" opacity=".62"/><path d="M182 1080 C157 981.6, 202 916, 198 898" stroke="#d9b66f" stroke-width="16" fill="none" opacity=".62"/><path d="M255 1080 C230 964.8, 275 888, 275 870" stroke="#d9b66f" stroke-width="20" fill="none" opacity=".62"/><path d="M328 1080 C303 948.0, 348 860, 352 842" stroke="#d9b66f" stroke-width="24" fill="none" opacity=".62"/><path d="M401 1080 C376 931.2, 421 832, 409 814" stroke="#d9b66f" stroke-width="8" fill="none" opacity=".62"/><path d="M474 1080 C449 1032.0, 494 1000, 486 982" stroke="#d9b66f" stroke-width="12" fill="none" opacity=".62"/><path d="M547 1080 C522 1015.2, 567 972, 563 954" stroke="#d9b66f" stroke-width="16" fill="none" opacity=".62"/><path d="M620 1080 C595 998.4, 640 944, 640 926" stroke="#d9b66f" stroke-width="20" fill="none" opacity=".62"/><path d="M693 1080 C668 981.6, 713 916, 717 898" stroke="#d9b66f" stroke-width="24" fill="none" opacity=".62"/><path d="M766 1080 C741 964.8, 786 888, 774 870" stroke="#d9b66f" stroke-width="8" fill="none" opacity=".62"/><path d="M839 1080 C814 948.0, 859 860, 851 842" stroke="#d9b66f" stroke-width="12" fill="none" opacity=".62"/><path d="M912 1080 C887 931.2, 932 832, 928 814" stroke="#d9b66f" stroke-width="16" fill="none" opacity=".62"/><path d="M985 1080 C960 1032.0, 1005 1000, 1005 982" stroke="#d9b66f" stroke-width="20" fill="none" opacity=".62"/><path d="M1058 1080 C1033 1015.2, 1078 972, 1082 954" stroke="#d9b66f" stroke-width="24" fill="none" opacity=".62"/><path d="M0 930 C320 870, 560 1010, 900 930 S1540 980, 1920 910 L1920 1080 L0 1080 Z" fill="#111312" opacity=".72"/><rect width="1920" height="1080" filter="url(#noise)" opacity=".42"/></svg>