<svg xmlns="http://www.w3.org/2000/svg" viewBox="0 0 1920 1080" role="img" aria-label="SMC slide 13 Foreground generated visual layer">
<defs><linearGradient id="g" x1="0" y1="0" x2="1" y2="1"><stop stop-color="#173d2a"/><stop offset=".56" stop-color="#2f553b"/><stop offset="1" stop-color="#f1b85b"/></linearGradient><filter id="noise"><feTurbulence baseFrequency=".9" numOctaves="3" seed="13"/><feColorMatrix type="saturate" values="0"/><feComponentTransfer><feFuncA type="table" tableValues="0 .18"/></feComponentTransfer></filter></defs><rect width="1920" height="1080" fill="transparent"/><path d="M533 1080 C508 1032.0, 553 1000, 541 982" stroke="#d9b66f" stroke-width="8" fill="none" opacity=".62"/><path d="M606 1080 C581 1015.2, 626 972, 618 954" stroke="#d9b66f" stroke-width="12" fill="none" opacity=".62"/><path d="M679 1080 C654 998.4, 699 944, 695 926" stroke="#d9b66f" stroke-width="16" fill="none" opacity=".62"/><path d="M752 1080 C727 981.6, 772 916, 772 898" stroke="#d9b66f" stroke-width="20" fill="none" opacity=".62"/><path d="M825 1080 C800 964.8, 845 888, 849 870" stroke="#d9b66f" stroke-width="24" fill="none" opacity=".62"/><path d="M898 1080 C873 948.0, 918 860, 906 842" stroke="#d9b66f" stroke-width="8" fill="none" opacity=".62"/><path d="M971 1080 C946 931.2, 991 832, 983 814" stroke="#d9b66f" stroke-width="12" fill="none" opacity=".62"/><path d="M1044 1080 C1019 1032.0, 1064 1000, 1060 982" stroke="#d9b66f" stroke-width="16" fill="none" opacity=".62"/><path d="M1117 1080 C1092 1015.2, 1137 972, 1137 954" stroke="#d9b66f" stroke-width="20" fill="none" opacity=".62"/><path d="M1190 1080 C1165 998.4, 1210 944, 1214 926" stroke="#d9b66f" stroke-width="24" fill="none" opacity=".62"/><path d="M1263 1080 C1238 981.6, 1283 916, 1271 898" stroke="#d9b66f" stroke-width="8" fill="none" opacity=".62"/><path d="M1336 1080 C1311 964.8, 1356 888, 1348 870" stroke="#d9b66f" stroke-width="12" fill="none" opacity=".62"/><path d="M1409 1080 C1384 948.0, 1429 860, 1425 842" stroke="#d9b66f" stroke-width="16" fill="none" opacity=".62"/><path d="M1482 1080 C1457 931.2, 1502 832, 1502 814" stroke="#d9b66f" stroke-width="20" fill="none" opacity=".62"/><path d="M1555 1080 C1530 1032.0, 1575 1000, 1579 982" stroke="#d9b66f" stroke-width="24" fill="none" opacity=".62"/><path d="M1628 1080 C1603 1015.2, 1648 972, 1636 954" stroke="#d9b66f" stroke-width="8" fill="none" opacity=".62"/><path d="M1701 1080 C1676 998.4, 1721 944, 1713 926" stroke="#d9b66f" stroke-width="12" fill="none" opacity=".62"/><path d="M1774 1080 C1749 981.6, 1794 916, 1790 898" stroke="#d9b66f" stroke-width="16" fill="none" opacity=".62"/><path d="M1847 1080 C1822 964.8, 1867 888, 1867 870" stroke="#d9b66f" stroke-width="20" fill="none" opacity=".62"/><path d="M0 1080 C-25 948.0, 20 860, 24 842" stroke="#d9b66f" stroke-width="24" fill="none" opacity=".62"/><path d="M73 1080 C48 931.2, 93 832, 81 814" stroke="#d9b66f" stroke-width="8" fill="none" opacity=".62"/><path d="M146 1080 C121 1032.0, 166 1000, 158 982" stroke="#d9b66f" stroke-width="12" fill="none" opacity=".62"/><path d="M219 1080 C194 1015.2, 239 972, 235 954" stroke="#d9b66f" stroke-width="16" fill="none" opacity=".62"/><path d="M292 1080 C267 998.4, 312 944, 312 926" stroke="#d9b66f" stroke-width="20" fill="none" opacity=".62"/><path d="M365 1080 C340 981.6, 385 916, 389 898" stroke="#d9b66f" stroke-width="24" fill="none" opacity=".62"/><path d="M438 1080 C413 964.8, 458 888, 446 870" stroke="#d9b66f" stroke-width="8" fill="none" opacity=".62"/><path d="M511 1080 C486 948.0, 531 860, 523 842" stroke="#d9b66f" stroke-width="12" fill="none" opacity=".62"/><path d="M584 1080 C559 931.2, 604 832, 600 814" stroke="#d9b66f" stroke-width="16" fill="none" opacity=".62"/><path d="M657 1080 C632 1032.0, 677 1000, 677 982" stroke="#d9b66f" stroke-width="20" fill="none" opacity=".62"/><path d="M730 1080 C705 1015.2, 750 972, 754 954" stroke="#d9b66f" stroke-width="24" fill="none" opacity=".62"/><path d="M0 930 C320 870, 560 1010, 900 930 S1540 980, 1920 910 L1920 1080 L0 1080 Z" fill="#111312" opacity=".72"/><rect width="1920" height="1080" filter="url(#noise)" opacity=".42"/></svg>