<svg xmlns="http://www.w3.org/2000/svg" viewBox="0 0 1920 1080" role="img" aria-label="SMC slide 04 Background generated visual layer">
<defs><linearGradient id="g" x1="0" y1="0" x2="1" y2="1"><stop stop-color="#173d2a"/><stop offset=".56" stop-color="#2f553b"/><stop offset="1" stop-color="#f1b85b"/></linearGradient><filter id="noise"><feTurbulence baseFrequency=".9" numOctaves="3" seed="4"/><feColorMatrix type="saturate" values="0"/><feComponentTransfer><feFuncA type="table" tableValues="0 .18"/></feComponentTransfer></filter></defs><rect width="1920" height="1080" fill="url(#g)"/><circle cx="260" cy="170" r="210" fill="#f1b85b" opacity=".28"/><polyline points="-120,385.1312189461451 60,347.5370013464567 240,358.25068534933234 420,405.08388084990384 600,434.7569450600029 780,413.51240649713884 960,365.51905000997834 1140,345.37637201362145 1320,375.9996290258493 1500,422.55036560533165 1680,432.0702774986107 1860,393.7290658198769 2040,351.1454937236442" fill="none" stroke="#fff7e6" stroke-width="42" opacity="0.055"/><polyline points="-120,419.72547887971376 60,424.5225093849207 240,469.6803994639517 420,503.8254124592521 600,488.11257791893865 780,440.41755439138603 960,415.00044070521835 1140,440.776939140216 1320,488.42249444732073 1500,503.7332851688344 1680,469.29103668720086 1860,424.27886850363734 2040,419.9047372033816" fill="none" stroke="#fff7e6" stroke-width="42" opacity="0.073"/><polyline points="-120,491.34794779580335 60,534.125858682058 240,572.2099989548633 420,562.2740619648085 600,515.6216362869977 780,485.3267124691181 960,505.8542186899804 1140,553.8510997696087 1320,574.7138495509744 1500,544.7080240344886 1680,497.96965959338945 1860,487.6705147487155 2040,525.5273803895518" fill="none" stroke="#fff7e6" stroke-width="42" opacity="0.091"/><polyline points="-120,598.50693525536 60,639.9359125342834 240,635.931920068057 420,591.0500877393824 600,556.3500959435695 780,571.3082850813221 960,618.9075166571988 1140,644.9966692658054 1320,619.8954975859443 1500,572.160273432362 1680,556.0968297539329 1860,589.9796945214018 2040,635.262129419026" fill="none" stroke="#fff7e6" stroke-width="42" opacity="0.10899999999999999"/><polyline points="-120,707.0386395555178 60,709.0290725763853 240,666.6181995792185 420,628.0546215717332 600,637.2100760877773 780,683.6688880711359 960,714.5773310062692 1140,694.7725085517926 1320,646.785316893185 1500,625.2082390470448 1680,654.5883721688674 1860,701.501496940105 2040,712.5770392802892" fill="none" stroke="#fff7e6" stroke-width="42" opacity="0.127"/><rect width="1920" height="1080" filter="url(#noise)" opacity=".42"/></svg>